# xmcd
#
# Track frame offsets:
#	150
#	12501
#	24118
#	34641
#	47016
#	61653
#	71637
#	86301
#	98403
#	114558
#	129942
#	142171
#	158384
#	172990
#	187909
#	206724
#	218294
#	232941
#
# Disc length: 3289 seconds
#
# Revision: 1
# Processed by: cddbd v1.5.2PL0 Copyright (c) Steve Scherf et al.
# Submitted via: audiograbber 1.83.01
#
DISCID=d30cd712
DTITLE=Various Artist - Classic Country - Somebody Done Me Wrong Songs
DYEAR=2005
DGENRE=Country
TTITLE0=Hank Williams - Your Cheatin' Heart
TTITLE1=Faron Young - Your Old Used To Be
TTITLE2=Jim Reeves - He'll Have To Go
TTITLE3=Ray Price - Heart Over Mind
TTITLE4=Porter Wagoner - The Cold Hard Facts Of Life
TTITLE5=Loretta Lynn - Fist City
TTITLE6=Jeannie C. Riley - Harper Valley P.T.A.
TTITLE7=Dolly Parton - Jolene
TTITLE8=Vicki Lawrence - The Night The Lights Went Out IN Georgia
TTITLE9=B.J. Thomas - (Hey, Won't You Play) Another Somebody Done Somebody Wron
TTITLE9=g Song
TTITLE10=Conway Twitty - Linda On My Mind
TTITLE11=Kenny Rogers - Lucille
TTITLE12=Rosanne Cash - Seven Year Ache
TTITLE13=Ricky Skaggs - Don't Cheat In Our Home Town
TTITLE14=Ronnie Milsap - Stranger In My House
TTITLE15=Travis Tritt - Here's A Quarter (Call Someone Who Cares)
TTITLE16=Pam Tillis - Cleopatra, Queen Of Denial
TTITLE17=Tracy Lawrence - Alibis
EXTD=
EXTT0=
EXTT1=
EXTT2=
EXTT3=
EXTT4=
EXTT5=
EXTT6=
EXTT7=
EXTT8=
EXTT9=
EXTT10=
EXTT11=
EXTT12=
EXTT13=
EXTT14=
EXTT15=
EXTT16=
EXTT17=
PLAYORDER=
